<svg width="117" height="53" viewBox="0 0 117 53" fill="none" xmlns="http://www.w3.org/2000/svg">
<path d="M22.375 14.43C24.965 14.43 27.2283 14.9433 29.165 15.97C31.1017 16.9967 32.595 18.4433 33.645 20.31C34.7183 22.1533 35.255 24.2883 35.255 26.715C35.255 29.1183 34.7183 31.2533 33.645 33.12C32.595 34.9867 31.09 36.4333 29.13 37.46C27.1933 38.4867 24.9417 39 22.375 39H13.17V14.43H22.375ZM21.99 33.82C24.2533 33.82 26.015 33.2017 27.275 31.965C28.535 30.7283 29.165 28.9783 29.165 26.715C29.165 24.4517 28.535 22.69 27.275 21.43C26.015 20.17 24.2533 19.54 21.99 19.54H19.155V33.82H21.99ZM36.0097 29.2C36.0097 27.1933 36.383 25.4317 37.1297 23.915C37.8997 22.3983 38.938 21.2317 40.2447 20.415C41.5514 19.5983 43.0097 19.19 44.6197 19.19C45.9964 19.19 47.198 19.47 48.2247 20.03C49.2747 20.59 50.0797 21.325 50.6397 22.235V19.47H56.6247V39H50.6397V36.235C50.0564 37.145 49.2397 37.88 48.1897 38.44C47.163 39 45.9614 39.28 44.5847 39.28C42.998 39.28 41.5514 38.8717 40.2447 38.055C38.938 37.215 37.8997 36.0367 37.1297 34.52C36.383 32.98 36.0097 31.2067 36.0097 29.2ZM50.6397 29.235C50.6397 27.7417 50.2197 26.5633 49.3797 25.7C48.563 24.8367 47.5597 24.405 46.3697 24.405C45.1797 24.405 44.1647 24.8367 43.3247 25.7C42.508 26.54 42.0997 27.7067 42.0997 29.2C42.0997 30.6933 42.508 31.8833 43.3247 32.77C44.1647 33.6333 45.1797 34.065 46.3697 34.065C47.5597 34.065 48.563 33.6333 49.3797 32.77C50.2197 31.9067 50.6397 30.7283 50.6397 29.235ZM62.5646 17.44C61.5146 17.44 60.6512 17.1367 59.9746 16.53C59.3212 15.9 58.9946 15.13 58.9946 14.22C58.9946 13.2867 59.3212 12.5167 59.9746 11.91C60.6512 11.28 61.5146 10.965 62.5646 10.965C63.5912 10.965 64.4312 11.28 65.0846 11.91C65.7612 12.5167 66.0996 13.2867 66.0996 14.22C66.0996 15.13 65.7612 15.9 65.0846 16.53C64.4312 17.1367 63.5912 17.44 62.5646 17.44ZM65.5396 19.47V39H59.5546V19.47H65.5396ZM74.0768 34.065H82.5468V39H67.3918V34.24L75.5118 24.405H67.4618V19.47H82.3718V24.23L74.0768 34.065ZM104.39 19.47L92.1401 48.275H85.7001L90.1801 38.335L82.2351 19.47H88.9201L93.4351 31.685L97.9151 19.47H104.39Z" fill="black"/>
<path d="M73 12.0055C101.8 -2.39446 113.333 17.6722 115.5 29.5055" stroke="#03A600" stroke-width="3"/>
<circle cx="4.5" cy="27.5" r="4.5" fill="#03A600"/>
</svg>
